# xmcd
#
# Track frame offsets:
# 150
# 12077
# 25570
# 35322
# 48045
# 63885
# 76142
# 89610
# 98292
# 114955
# 125692
# 139007
# 150707
# 162625
# 173012
# 185092
# 199745
# 239160
# 249970
# 259682
#
# Disc length: 3601 seconds
#
# Revision: 0
# Processed by: cddbd v1.4PL0 Copyright (c) Steve Scherf et al.
# Submitted via: MacMP3 Pro 5.0 (http://mp3.act2.co.jp/)
#
DISCID=f70e0f14
DTITLE=Various Artist - I Got It Bad and That Ain't Good
DYEAR=1900
DGENRE=
TTITLE0=I Got It Bad and That Ain't Good
TTITLE1=Sad Letter Blues
TTITLE2=Dusty Road
TTITLE3=Rockin' Chair Blues
TTITLE4=Four O'Clock Blues
TTITLE5=Little Rain
TTITLE6=Kitchen Man
TTITLE7=Please Don't Talk About Me When I'm Gone
TTITLE8=Process
TTITLE9=Blue Tail Fly
TTITLE10=Dust My Broom
TTITLE11=Nice Work If You Can Ge<caron>.
TTITLE12=Whiskey and Wimmen
TTITLE13=Diam Feet
TTITLE14=I'm In The Mood
TTITLE15=In New Orleans
TTITLE16=Fine and Mellow
TTITLE17=How Blue Can You Get
TTITLE18=Mean Red Spider
TTITLE19=Frisco Blues
EXTD=
EXTT0=
EXTT1=
EXTT2=
EXTT3=
EXTT4=
EXTT5=
EXTT6=
EXTT7=
EXTT8=
EXTT9=
EXTT10=
EXTT11=
EXTT12=
EXTT13=
EXTT14=
EXTT15=
EXTT16=
EXTT17=
EXTT18=
EXTT19=
PLAYORDER=
